<svg xmlns="http://www.w3.org/2000/svg" viewBox="0 0 64 64"><path fill="#78b9eb" d="M27 35a6.006 6.006 0 0 1 5.86 4.71 13.955 13.955 0 0 1-11.72 0A6.006 6.006 0 0 1 27 35zM39.71 21.14a13.955 13.955 0 0 1 0 11.72 6 6 0 0 1 0-11.72zM32.86 14.29a6 6 0 0 1-11.72 0 13.955 13.955 0 0 1 11.72 0zM14.29 21.14a6 6 0 0 1 0 11.72 13.955 13.955 0 0 1 0-11.72z"/><path fill="#78b9eb" d="M27,32a5,5,0,1,0-5-5A5,5,0,0,0,27,32Zm0,3a6.006,6.006,0,0,0-5.86,4.71A6.07,6.07,0,0,0,21,41a6,6,0,0,0,12,0,6.07,6.07,0,0,0-.14-1.29A6.006,6.006,0,0,0,27,35Zm0-16a6.006,6.006,0,0,0,5.86-4.71A6.07,6.07,0,0,0,33,13a6,6,0,0,0-12,0,6.07,6.07,0,0,0,.14,1.29A6.006,6.006,0,0,0,27,19ZM39.71,32.86A6.07,6.07,0,0,0,41,33a6,6,0,0,0,0-12,6.07,6.07,0,0,0-1.29.14,6,6,0,0,0,0,11.72ZM27,3A24,24,0,1,1,3,27,24.006,24.006,0,0,1,27,3ZM19,27a6.006,6.006,0,0,0-4.71-5.86A6.07,6.07,0,0,0,13,21a6,6,0,0,0,0,12,6.07,6.07,0,0,0,1.29-.14A6.006,6.006,0,0,0,19,27Z"/><path fill="#006df0" d="M27 21a6 6 0 1 0 6 6A6.006 6.006 0 0 0 27 21zm0 10a4 4 0 1 1 4-4A4 4 0 0 1 27 31zM27 20a7 7 0 1 0-7-7 6.965 6.965 0 0 0 .164 1.5A7.039 7.039 0 0 0 27 20zm0-2a5.034 5.034 0 0 1-4.633-3.125 13.023 13.023 0 0 1 9.266 0A5.034 5.034 0 0 1 27 18zM27 8a5 5 0 0 1 4.986 4.866 15.053 15.053 0 0 0-9.972 0A5 5 0 0 1 27 8zM27 34a7 7 0 1 0 7 7 6.965 6.965 0 0 0-.164-1.5A7.039 7.039 0 0 0 27 34zm0 2a5.034 5.034 0 0 1 4.633 3.125 13.023 13.023 0 0 1-9.266 0A5.034 5.034 0 0 1 27 36zm0 10a5 5 0 0 1-4.986-4.863 14.835 14.835 0 0 0 9.972 0A5 5 0 0 1 27 46zM14.505 20.164A7 7 0 1 0 20 27 6.981 6.981 0 0 0 14.505 20.164zM8 27a5 5 0 0 1 4.863-4.986 14.835 14.835 0 0 0 0 9.972A5 5 0 0 1 8 27zm6.873 4.633a12.73 12.73 0 0 1 0-9.266 5 5 0 0 1 0 9.266z"/><path fill="#006df0" d="M48,27a7,7,0,1,0-7,7A7.008,7.008,0,0,0,48,27ZM36,27a5.033,5.033,0,0,1,3.127-4.633,12.73,12.73,0,0,1,0,9.266A5.033,5.033,0,0,1,36,27Zm5.137,4.986a14.835,14.835,0,0,0,0-9.972,4.988,4.988,0,0,1,0,9.972Z"/><path fill="#006df0" d="M61,37a7.008,7.008,0,0,0-7,7v9.5a6.5,6.5,0,0,1-13,0V47.7a24.977,24.977,0,1,0-2,1.222V53.5a8.5,8.5,0,0,0,17,0V44a5.006,5.006,0,0,1,5-5h1V37ZM4,27A23,23,0,1,1,27,50,23.026,23.026,0,0,1,4,27Z"/></svg>