<svg xmlns="http://www.w3.org/2000/svg" xmlns:xlink="http://www.w3.org/1999/xlink" width="512" height="512"><defs><linearGradient id="a"><stop offset="0" stop-color="#ee4db7"/><stop offset="1" stop-color="#1fd2fd"/></linearGradient><linearGradient id="b"><stop offset="0" stop-color="#ee4db7"/><stop offset="1" stop-color="#1fd2fd"/></linearGradient><linearGradient id="c"><stop offset="0" stop-color="#ee4db7"/><stop offset="1" stop-color="#1fd2fd"/></linearGradient><linearGradient id="f" x1="-2249.144" x2="-1228.167" y1="-384.423" y2="374.332" gradientUnits="userSpaceOnUse" xlink:href="#d"/><linearGradient id="d"><stop offset="0" stop-color="#e74c3c"/><stop offset="1" stop-color="#ca4638"/></linearGradient><linearGradient id="e"><stop offset="0" stop-color="#e74c3c"/><stop offset="1" stop-color="#ca4638"/></linearGradient><linearGradient id="g" x1="-1249.603" x2="-2223.596" y1="374.664" y2="-400.385" gradientUnits="userSpaceOnUse" xlink:href="#e"/></defs><g transform="translate(0 -540.362)"><g><path fill="url(#f)" d="m -1131.3708,6.9237208 c 0,341.4298192 -276.7836,618.2133792 -618.2134,618.2133792 -341.4298,0 -618.2134,-276.78356 -618.2134,-618.2133792 0,-341.4298208 276.7836,-618.2133808 618.2134,-618.2133808 341.4298,0 618.2134,276.78356 618.2134,618.2133808 z" transform="matrix(.38822 0 0 .38822 935.216 793.674)"/><path fill="url(#g)" d="m -1131.3708,6.9237208 c 0,341.4298192 -276.7836,618.2133792 -618.2134,618.2133792 -341.4298,0 -618.2134,-276.78356 -618.2134,-618.2133792 0,-341.4298208 276.7836,-618.2133808 618.2134,-618.2133808 341.4298,0 618.2134,276.78356 618.2134,618.2133808 z" transform="translate(836.163 794.066) scale(.3316)"/></g><path fill="#fff" d="m 307.42857,676.36218 c -27.72,0 -44.86286,15.94286 -51.42857,23.04 -6.56571,-7.09714 -23.70857,-23.04 -51.42857,-23.04 -37.62857,0 -68.57143,30.27429 -68.57143,68.57142 0,59.60571 90.18858,150.10286 102.85714,161.65713 4.56,4.1486 8.43429,9.77145 17.14286,9.77145 8.70857,0 12.58286,-5.62285 17.14286,-9.77145 C 285.79429,895.03646 376,804.53931 376,744.9336 376,706.63647 345.05714,676.36218 307.42857,676.36218 z M 256,875.57932 c -28.92,-28.38858 -85.71429,-96.15429 -85.71429,-130.64572 0,-18.90856 15.37715,-34.28571 34.28572,-34.28571 12.49714,0 21.17143,6.53143 26.24571,12.01715 L 256,749.90503 281.18286,722.66504 c 5.07428,-5.48572 13.74857,-12.01715 26.24571,-12.01715 18.90857,0 34.28572,15.37715 34.28572,34.28571 0,34.49143 -56.79429,102.25714 -85.71429,130.64572 z"/></g></svg>