<svg xmlns="http://www.w3.org/2000/svg" viewBox="0 0 96 96" id="warning"><g data-name="Backend Coding"><path fill="#c2ceff" d="M1,22.5H95a0,0,0,0,1,0,0V80.67a4.67,4.67,0,0,1-4.67,4.67H5.67A4.67,4.67,0,0,1,1,80.67V22.5A0,0,0,0,1,1,22.5Z"></path><path fill="#dbecff" d="M21.47,10.65h52.4a1.55,1.55,0,0,1,1.55,1.55V95.1a1.55,1.55,0,0,1-1.55,1.55H21.47a.89.89,0,0,1-.89-.89V11.53A.89.89,0,0,1,21.47,10.65Z" transform="rotate(90 48 53.65)"></path><path fill="#fff" d="M10.52 30.23H33.16a1.52 1.52 0 011.3 2.29L13.45 68A11.21 11.21 0 0012 75.35a1.5 1.5 0 01-1.5 1.72h0A1.52 1.52 0 019 75.55V31.75A1.52 1.52 0 0110.52 30.23zM87 31.75v43.8a1.52 1.52 0 01-1.52 1.52h0A1.5 1.5 0 0184 75.35 11.21 11.21 0 0082.55 68l-21-35.45a1.52 1.52 0 011.3-2.29H85.48A1.52 1.52 0 0187 31.75z"></path><path fill="#619fff" d="M95,22.5V15.33a4.67,4.67,0,0,0-4.67-4.66H5.67A4.67,4.67,0,0,0,1,15.33V22.5Z"></path><path fill="#89d1ff" d="M76.12,19.72V15.33a4.67,4.67,0,0,0-4.67-4.66H27.07a4.67,4.67,0,0,0-4.67,4.66v4.39a2.79,2.79,0,0,0,2.78,2.78H73.33A2.79,2.79,0,0,0,76.12,19.72Z"></path><path fill="#5955a1" d="M80.42 17.58H80a1 1 0 010-2h.4a1 1 0 110 2zM84.78 17.58h-.4a1 1 0 010-2h.4a1 1 0 110 2zM89.14 17.58h-.41a1 1 0 010-2h.41a1 1 0 110 2zM32.12 17.58h-25a1 1 0 010-2h25a1 1 0 110 2z"></path><path fill="#ffab57" d="M72.92,76.87H23.08A3.2,3.2,0,0,1,20.33,72L45.25,30a3.2,3.2,0,0,1,5.5,0L75.67,72A3.2,3.2,0,0,1,72.92,76.87Z"></path><rect width="23.5" height="4.01" x="36.25" y="66.49" fill="#ffd37a" rx="1.19"></rect><path fill="#ffd37a" d="M64.24,60.62,49.93,36.46a2.24,2.24,0,0,0-3.86,0L31.76,60.62A2.24,2.24,0,0,0,33.68,64H62.32A2.24,2.24,0,0,0,64.24,60.62Z"></path><path fill="#fff" d="M48,62.25a2.61,2.61,0,0,1-2.6-2.42l-1.17-16.2a3.78,3.78,0,1,1,7.54,0L50.6,59.83A2.6,2.6,0,0,1,48,62.25Z"></path><circle cx="48" cy="69.31" r="2.82" fill="#fff"></circle><path fill="#777dba" d="M22.37 31H7.12a1 1 0 110-2H22.37a1 1 0 110 2zM22.37 36.25H7.12a1 1 0 110-2H22.37a1 1 0 110 2zM13.37 41.5H7.12a1 1 0 110-2h6.25a1 1 0 010 2zM9.37 53.65H7.12a1 1 0 110-2H9.37a1 1 0 010 2zM14.75 58.9H7.12a1 1 0 110-2h7.63a1 1 0 110 2zM14.75 64.15H7.12a1 1 0 110-2h7.63a1 1 0 010 2zM89.42 43.75H78a1 1 0 010-2H89.42a1 1 0 110 2zM89.42 49H78a1 1 0 010-2H89.42a1 1 0 110 2zM87 54.25H78a1 1 0 010-2h9a1 1 0 110 2z"></path></g></svg>