<svg xmlns="http://www.w3.org/2000/svg" viewBox="0 0 32 32"><rect width="22" height="30" x="5" y="1" fill="#96d7ff" rx="3" ry="3"/><path fill="#86c3ef" d="M7,29.63v-24a3,3,0,0,1,3-3H26a2.74,2.74,0,0,1,.7.09A3,3,0,0,0,24,1H8A3,3,0,0,0,5,4V28a3,3,0,0,0,2.3,2.91A2.9,2.9,0,0,1,7,29.63Z"/><path fill="#ffc661" d="M27,28V23H5v5a3,3,0,0,0,3,3H24A3,3,0,0,0,27,28Z"/><path fill="#e49f4e" d="M5.11 28.75c0 .11.06.23.1.34l.1.21a2.15 2.15 0 0 0 .14.26l.15.22.15.19.21.22.14.11a3 3 0 0 0 1.2.61h0A2.9 2.9 0 0 1 7 29.63V23H5v5a2.6 2.6 0 0 0 .06.56A1.05 1.05 0 0 0 5.11 28.75zM17.26 28.32h-2a1 1 0 1 1 0-2h2a1 1 0 0 1 0 2z"/><path fill="#eef5fd" d="M17,28H15a1,1,0,0,1,0-2h2a1,1,0,0,1,0,2Z"/><path fill="#d7e2f2" d="M14.3,27.23a1,1,0,0,1,1-1h2a.93.93,0,0,1,.44.11A1,1,0,0,0,17,26H15a1,1,0,0,0-.44,1.89A1,1,0,0,1,14.3,27.23Z"/><path fill="#86c3ef" d="M23,10.49a2.24,2.24,0,0,0-2.15-1.56H19.06a.28.28,0,0,1-.25-.21L18.26,7a2.25,2.25,0,0,0-4.32,0L13.4,8.72a.29.29,0,0,1-.26.21H11.37a2.24,2.24,0,0,0-2.14,1.56,2.31,2.31,0,0,0,.8,2.62l1.43,1.08a.36.36,0,0,1,.11.38L11,16.32a2.33,2.33,0,0,0,.88,2.62,2.19,2.19,0,0,0,2.63-.05L16,17.81a.26.26,0,0,1,.29,0l1.43,1.08a2.24,2.24,0,0,0,1.35.47,2.2,2.2,0,0,0,1.28-.42,2.35,2.35,0,0,0,.88-2.62l-.55-1.75a.36.36,0,0,1,.11-.38l1.43-1.08A2.31,2.31,0,0,0,23,10.49Z"/><path fill="#ffc661" d="M22.87,10.14a2.24,2.24,0,0,0-2.14-1.57H19a.27.27,0,0,1-.25-.21l-.55-1.75a2.25,2.25,0,0,0-4.32,0l-.55,1.75a.27.27,0,0,1-.25.21H11.27a2.24,2.24,0,0,0-2.14,1.57,2.31,2.31,0,0,0,.79,2.62l1.43,1.08a.34.34,0,0,1,.11.38L10.92,16a2.33,2.33,0,0,0,.87,2.62,2.21,2.21,0,0,0,2.64-.05l1.43-1.08a.21.21,0,0,1,.28,0l1.43,1.08a2.23,2.23,0,0,0,1.35.46,2.29,2.29,0,0,0,1.29-.41A2.33,2.33,0,0,0,21.08,16l-.54-1.75a.34.34,0,0,1,.11-.38l1.43-1.08A2.31,2.31,0,0,0,22.87,10.14Z"/><path fill="#e49f4e" d="M11.44,16.26,12,14.51a.35.35,0,0,0-.1-.38l-1.44-1.08a2.31,2.31,0,0,1-.79-2.62,2.25,2.25,0,0,1,2.14-1.57h1.77a.27.27,0,0,0,.25-.2l.55-1.76a2.24,2.24,0,0,1,3-1.44A2.26,2.26,0,0,0,16,5a2.23,2.23,0,0,0-2.16,1.61l-.55,1.75a.27.27,0,0,1-.25.21H11.27a2.24,2.24,0,0,0-2.14,1.57,2.31,2.31,0,0,0,.79,2.62l1.43,1.08a.34.34,0,0,1,.11.38L10.92,16a2.33,2.33,0,0,0,.87,2.62,2.3,2.3,0,0,0,.42.2A2.31,2.31,0,0,1,11.44,16.26Z"/></svg>