<svg xmlns="http://www.w3.org/2000/svg" viewBox="0 0 24 24"><path fill="#303C42" d="M15 5.812V1.5a.5.5 0 0 0-.5-.5h-5a.5.5 0 0 0-.5.5v4.312A5.998 5.998 0 0 0 6 11c0 3.309 2.691 6 6 6s6-2.691 6-6a5.998 5.998 0 0 0-3-5.188z"/><path fill="#CCC" d="M10 2h4v3.35c-.627-.222-1.298-.35-2-.35s-1.373.128-2 .35V2z"/><path fill="#FFF" d="M11 3.5a.5.5 0 0 1 .5-.5H14V2h-4v3.35a6.121 6.121 0 0 1 1-.26V3.5z" opacity=".2"/><circle cx="12" cy="11" r="5" fill="#FDD837"/><path fill="#010101" d="M14.85 6.9c.564.81.9 1.79.9 2.85 0 2.757-2.243 5-5 5-1.06 0-2.04-.336-2.85-.9A4.993 4.993 0 0 0 12 16c2.757 0 5-2.243 5-5a4.993 4.993 0 0 0-2.15-4.1z" opacity=".1"/><path fill="#303C42" d="M18 5.5a.498.498 0 00.354-.146l2-2a.5.5 0 10-.708-.708l-2 2A.5.5 0 0018 5.5zM5.646 5.354a.498.498 0 00.708 0 .5.5 0 000-.708l-2-2a.5.5 0 10-.708.708l2 2zM18.354 16.646a.5.5 0 10-.708.708l2 2a.498.498 0 00.708 0 .5.5 0 000-.708l-2-2zM5.646 16.646l-2 2a.5.5 0 10.708.708l2-2a.5.5 0 10-.708-.708zM4 11.5a.5.5 0 00-.5-.5h-2a.5.5 0 100 1h2a.5.5 0 00.5-.5zM22.5 11h-2a.5.5 0 100 1h2a.5.5 0 100-1zM12 19a.5.5 0 00-.5.5v3a.5.5 0 101 0v-3a.5.5 0 00-.5-.5z"/><linearGradient id="a" x1="1.911" x2="22.089" y1="6.296" y2="15.704" gradientUnits="userSpaceOnUse"><stop offset="0" stop-color="#FFF" stop-opacity=".2"/><stop offset="1" stop-color="#FFF" stop-opacity="0"/></linearGradient><path fill="url(#a)" d="M15 5.812V1.5a.5.5 0 0 0-.5-.5h-5a.5.5 0 0 0-.5.5v4.312A5.998 5.998 0 0 0 6 11c0 3.309 2.691 6 6 6s6-2.691 6-6a5.998 5.998 0 0 0-3-5.188zm3-.312a.498.498 0 0 0 .354-.146l2-2a.5.5 0 1 0-.708-.708l-2 2A.5.5 0 0 0 18 5.5zM5.646 5.354a.498.498 0 0 0 .708 0 .5.5 0 0 0 0-.708l-2-2a.5.5 0 1 0-.708.708l2 2zm12.708 11.292a.5.5 0 1 0-.708.708l2 2a.498.498 0 0 0 .708 0 .5.5 0 0 0 0-.708l-2-2zm-12.708 0l-2 2a.5.5 0 1 0 .708.708l2-2a.5.5 0 1 0-.708-.708zM4 11.5a.5.5 0 0 0-.5-.5h-2a.5.5 0 1 0 0 1h2a.5.5 0 0 0 .5-.5zm18.5-.5h-2a.5.5 0 1 0 0 1h2a.5.5 0 1 0 0-1zM12 19a.5.5 0 0 0-.5.5v3a.5.5 0 1 0 1 0v-3a.5.5 0 0 0-.5-.5z"/></svg>