<svg width="120" height="180" viewBox="0 0 120 180" fill="none" xmlns="http://www.w3.org/2000/svg">
<path d="M102.498 20.002C80.83 19.996 39.172 20.006 17.502 20.002C16.673 20.002 16.002 20.673 16.002 21.502C16.018 48.786 15.992 79.216 16.002 106.487C16.002 107.315 16.673 107.987 17.502 107.987C38.716 108.03 81.551 107.956 102.498 107.987C103.327 107.987 103.998 107.315 103.998 106.487C103.988 91.262 104.005 70.455 103.998 55.232V39.026V21.502C103.998 20.673 103.327 20.002 102.498 20.002ZM100.998 54.392H86.472V39.865H100.999L100.998 54.392ZM100.998 71.257H86.472V56.731H100.999L100.998 71.257ZM86.472 73.596H100.999V88.123H86.472V73.596ZM100.998 37.527H86.472V23H100.999L100.998 37.527ZM19.002 56.731H33.529V71.258H19.002V56.731ZM33.529 54.392H19.002V39.865H33.529V54.392ZM19.002 73.596H33.529V88.123H19.002V73.596ZM19.002 23H33.529V37.527H19.002V23ZM19.002 90.461H33.529V104.988H19.002V90.461ZM36.529 88.962C36.529 68.303 36.529 43.655 36.529 23.001H83.472C83.472 49.282 83.472 78.706 83.472 104.986H36.529V88.962ZM100.998 104.988H86.472V90.461H100.999L100.998 104.988Z" fill="#776969" fill-opacity="0.22"/>
<path d="M70.82 62.735L50.814 49.757C49.866 49.103 48.46 49.861 48.498 51.016V76.972C48.463 78.123 49.865 78.889 50.814 78.231L70.82 65.253C71.718 64.704 71.721 63.284 70.82 62.735ZM51.497 74.211V53.777L67.247 63.994L51.497 74.211Z" fill="#776969" fill-opacity="0.22"/>
<path d="M33.1136 122.273V131H31.1364L27.983 126.415H27.9318V131H25.5625V122.273H27.5739L30.6761 126.841H30.7443V122.273H33.1136ZM42.6889 126.636C42.6889 127.608 42.5 128.428 42.1222 129.095C41.7443 129.76 41.2344 130.264 40.5923 130.608C39.9503 130.949 39.2344 131.119 38.4446 131.119C37.6491 131.119 36.9304 130.947 36.2884 130.604C35.6491 130.257 35.1406 129.751 34.7628 129.087C34.3878 128.419 34.2003 127.602 34.2003 126.636C34.2003 125.665 34.3878 124.847 34.7628 124.182C35.1406 123.514 35.6491 123.01 36.2884 122.669C36.9304 122.325 37.6491 122.153 38.4446 122.153C39.2344 122.153 39.9503 122.325 40.5923 122.669C41.2344 123.01 41.7443 123.514 42.1222 124.182C42.5 124.847 42.6889 125.665 42.6889 126.636ZM40.2514 126.636C40.2514 126.114 40.1818 125.673 40.0426 125.315C39.9062 124.955 39.7031 124.682 39.4332 124.497C39.1662 124.31 38.8366 124.216 38.4446 124.216C38.0526 124.216 37.7216 124.31 37.4517 124.497C37.1847 124.682 36.9815 124.955 36.8423 125.315C36.706 125.673 36.6378 126.114 36.6378 126.636C36.6378 127.159 36.706 127.601 36.8423 127.962C36.9815 128.32 37.1847 128.592 37.4517 128.78C37.7216 128.964 38.0526 129.057 38.4446 129.057C38.8366 129.057 39.1662 128.964 39.4332 128.78C39.7031 128.592 39.9062 128.32 40.0426 127.962C40.1818 127.601 40.2514 127.159 40.2514 126.636ZM46.1758 131V122.273H49.9428C50.5906 122.273 51.1573 122.401 51.6431 122.656C52.1289 122.912 52.5067 123.271 52.7766 123.734C53.0465 124.197 53.1815 124.739 53.1815 125.358C53.1815 125.983 53.0423 126.524 52.7638 126.982C52.4883 127.439 52.1005 127.791 51.6005 128.038C51.1033 128.286 50.5224 128.409 49.8576 128.409H47.6076V126.568H49.3803C49.6587 126.568 49.896 126.52 50.092 126.423C50.2908 126.324 50.4428 126.183 50.5479 126.001C50.6559 125.82 50.7099 125.605 50.7099 125.358C50.7099 125.108 50.6559 124.895 50.5479 124.719C50.4428 124.54 50.2908 124.403 50.092 124.31C49.896 124.213 49.6587 124.165 49.3803 124.165H48.5451V131H46.1758ZM62.5053 126.636C62.5053 127.608 62.3164 128.428 61.9386 129.095C61.5607 129.76 61.0508 130.264 60.4087 130.608C59.7667 130.949 59.0508 131.119 58.261 131.119C57.4656 131.119 56.7468 130.947 56.1048 130.604C55.4656 130.257 54.957 129.751 54.5792 129.087C54.2042 128.419 54.0167 127.602 54.0167 126.636C54.0167 125.665 54.2042 124.847 54.5792 124.182C54.957 123.514 55.4656 123.01 56.1048 122.669C56.7468 122.325 57.4656 122.153 58.261 122.153C59.0508 122.153 59.7667 122.325 60.4087 122.669C61.0508 123.01 61.5607 123.514 61.9386 124.182C62.3164 124.847 62.5053 125.665 62.5053 126.636ZM60.0678 126.636C60.0678 126.114 59.9982 125.673 59.859 125.315C59.7227 124.955 59.5195 124.682 59.2496 124.497C58.9826 124.31 58.6531 124.216 58.261 124.216C57.869 124.216 57.538 124.31 57.2681 124.497C57.0011 124.682 56.7979 124.955 56.6587 125.315C56.5224 125.673 56.4542 126.114 56.4542 126.636C56.4542 127.159 56.5224 127.601 56.6587 127.962C56.7979 128.32 57.0011 128.592 57.2681 128.78C57.538 128.964 57.869 129.057 58.261 129.057C58.6531 129.057 58.9826 128.964 59.2496 128.78C59.5195 128.592 59.7227 128.32 59.859 127.962C59.9982 127.601 60.0678 127.159 60.0678 126.636ZM68.3061 125C68.2834 124.716 68.1768 124.494 67.9865 124.335C67.799 124.176 67.5135 124.097 67.13 124.097C66.8857 124.097 66.6854 124.126 66.5291 124.186C66.3757 124.243 66.2621 124.321 66.1882 124.42C66.1143 124.52 66.076 124.634 66.0732 124.761C66.0675 124.866 66.0859 124.962 66.1286 125.047C66.174 125.129 66.245 125.205 66.3416 125.273C66.4382 125.338 66.5618 125.398 66.7124 125.452C66.8629 125.506 67.0419 125.554 67.2493 125.597L67.9652 125.75C68.4482 125.852 68.8615 125.987 69.2053 126.155C69.549 126.322 69.8303 126.52 70.049 126.747C70.2678 126.972 70.4283 127.224 70.5305 127.506C70.6357 127.787 70.6896 128.094 70.6925 128.426C70.6896 129 70.5462 129.486 70.2621 129.884C69.978 130.281 69.5717 130.584 69.0433 130.791C68.5178 130.999 67.8857 131.102 67.147 131.102C66.3885 131.102 65.7266 130.99 65.1612 130.766C64.5987 130.541 64.1612 130.196 63.8487 129.73C63.5391 129.261 63.3828 128.662 63.38 127.932H65.63C65.6442 128.199 65.7109 128.423 65.8303 128.605C65.9496 128.787 66.1172 128.925 66.3331 129.018C66.5518 129.112 66.8118 129.159 67.1129 129.159C67.3658 129.159 67.5774 129.128 67.7479 129.065C67.9183 129.003 68.0476 128.916 68.1357 128.805C68.2237 128.695 68.2692 128.568 68.272 128.426C68.2692 128.293 68.2251 128.176 68.1399 128.077C68.0575 127.974 67.9212 127.884 67.7308 127.804C67.5405 127.722 67.2834 127.645 66.9595 127.574L66.0902 127.386C65.3175 127.219 64.7081 126.939 64.2621 126.547C63.8189 126.152 63.5987 125.614 63.6016 124.932C63.5987 124.378 63.7464 123.893 64.0447 123.479C64.3459 123.061 64.7621 122.736 65.2933 122.503C65.8274 122.27 66.4396 122.153 67.13 122.153C67.8345 122.153 68.4439 122.271 68.9581 122.507C69.4723 122.743 69.8686 123.075 70.147 123.504C70.4283 123.93 70.5703 124.429 70.5732 125H68.3061ZM71.3551 124.182V122.273H78.9403V124.182H76.3153V131H73.9801V124.182H71.3551ZM79.832 131V122.273H86.1218V124.182H82.2013V125.682H85.7979V127.591H82.2013V129.091H86.1048V131H79.832ZM87.2969 131V122.273H91.0639C91.7116 122.273 92.2784 122.391 92.7642 122.626C93.25 122.862 93.6278 123.202 93.8977 123.645C94.1676 124.088 94.3026 124.619 94.3026 125.239C94.3026 125.864 94.1634 126.391 93.8849 126.82C93.6094 127.249 93.2216 127.572 92.7216 127.791C92.2244 128.01 91.6435 128.119 90.9787 128.119H88.7287V126.278H90.5014C90.7798 126.278 91.017 126.244 91.2131 126.176C91.4119 126.105 91.5639 125.993 91.669 125.839C91.777 125.686 91.831 125.486 91.831 125.239C91.831 124.989 91.777 124.786 91.669 124.629C91.5639 124.47 91.4119 124.354 91.2131 124.28C91.017 124.203 90.7798 124.165 90.5014 124.165H89.6662V131H87.2969ZM92.4105 126.994L94.5923 131H92.0185L89.8878 126.994H92.4105ZM27.8295 146H25.2727L28.1534 137.273H31.392L34.2727 146H31.7159L29.8068 139.676H29.7386L27.8295 146ZM27.3523 142.557H32.1591V144.33H27.3523V142.557ZM36.234 137.273L38.0238 143.426H38.092L39.8817 137.273H42.5579L39.6772 146H36.4386L33.5579 137.273H36.234ZM44.2358 146H41.679L44.5597 137.273H47.7983L50.679 146H48.1222L46.2131 139.676H46.1449L44.2358 146ZM43.7585 142.557H48.5653V144.33H43.7585V142.557ZM53.8888 137.273V146H51.5195V137.273H53.8888ZM55.0117 146V137.273H57.381V144.091H60.9094V146H55.0117ZM64.1342 146H61.5774L64.4581 137.273H67.6967L70.5774 146H68.0206L66.1115 139.676H66.0433L64.1342 146ZM63.657 142.557H68.4638V144.33H63.657V142.557ZM71.418 146V137.273H75.2021C75.8668 137.273 76.4251 137.362 76.8768 137.541C77.3313 137.72 77.6737 137.973 77.9038 138.3C78.1367 138.626 78.2532 139.011 78.2532 139.455C78.2532 139.776 78.1822 140.068 78.0401 140.332C77.9009 140.597 77.7049 140.818 77.4521 140.997C77.1992 141.173 76.9038 141.295 76.5657 141.364V141.449C76.9407 141.463 77.2816 141.558 77.5884 141.734C77.8952 141.908 78.1396 142.148 78.3214 142.455C78.5032 142.759 78.5941 143.116 78.5941 143.528C78.5941 144.006 78.4691 144.43 78.2191 144.803C77.9719 145.175 77.6197 145.467 77.1623 145.68C76.7049 145.893 76.1594 146 75.5259 146H71.418ZM73.7873 144.108H74.8952C75.293 144.108 75.5913 144.034 75.7901 143.886C75.989 143.736 76.0884 143.514 76.0884 143.222C76.0884 143.017 76.0415 142.844 75.9478 142.702C75.854 142.56 75.7205 142.452 75.5472 142.378C75.3768 142.304 75.1708 142.267 74.9293 142.267H73.7873V144.108ZM73.7873 140.801H74.7589C74.9663 140.801 75.1495 140.768 75.3086 140.703C75.4677 140.638 75.5913 140.544 75.6793 140.422C75.7702 140.297 75.8157 140.145 75.8157 139.966C75.8157 139.696 75.7191 139.49 75.5259 139.348C75.3327 139.203 75.0884 139.131 74.793 139.131H73.7873V140.801ZM79.4336 146V137.273H81.8029V144.091H85.3313V146H79.4336ZM86.2891 146V137.273H92.5788V139.182H88.6584V140.682H92.255V142.591H88.6584V144.091H92.5618V146H86.2891Z" fill="#776969" fill-opacity="0.22"/>
</svg>
